# xmcd
#
# Track frame offsets:
# 150
# 13222
# 27001
# 39378
# 54289
# 68398
# 80966
# 94207
# 105535
# 116230
# 130299
# 143650
# 153528
# 164169
#
# Disc length: 2389 seconds
#
#
# Revision: 4
# Processed by: cddbd v1.5.2PL0 Copyright (c) Steve Scherf et al.
# Submitted via: FreeRIP 2.951 
#
DISCID=bc09530e
DTITLE=Cesar and Paulinho - Alma Sertaneja
DYEAR=1900
DGENRE=
TTITLE0=Canta Moçada
TTITLE1=Águas De São Francisco
TTITLE2=Soca Pilão
TTITLE3=Pés Descalços
TTITLE4=Canoeiro
TTITLE5=Zé De Baixo, Zé De Cima
TTITLE6=Encantos Da Natureza
TTITLE7=Velhas Cartas
TTITLE8=O Pobre E O Rico
TTITLE9=Porque
TTITLE10=Piracicaba
TTITLE11=Esquecido
TTITLE12=Barbaridade
TTITLE13=Velho Peão
EXTD=
EXTT0=
EXTT1=
EXTT2=
EXTT3=
EXTT4=
EXTT5=
EXTT6=
EXTT7=
EXTT8=
EXTT9=
EXTT10=
EXTT11=
EXTT12=
EXTT13=
PLAYORDER=
